<svg width="16" height="16" viewBox="0 0 16 16" fill="none" xmlns="http://www.w3.org/2000/svg">
<path d="M4 8L3.64645 8.35355L3.29289 8L3.64645 7.64645L4 8ZM7.64645 12.3536L3.64645 8.35355L4.35355 7.64645L8.35355 11.6464L7.64645 12.3536ZM3.64645 7.64645L7.64645 3.64645L8.35355 4.35355L4.35355 8.35355L3.64645 7.64645Z" fill="white"/>
<path d="M8 8L7.64645 8.35355L7.29289 8L7.64645 7.64645L8 8ZM11.6464 12.3536L7.64645 8.35355L8.35355 7.64645L12.3536 11.6464L11.6464 12.3536ZM7.64645 7.64645L11.6464 3.64645L12.3536 4.35355L8.35355 8.35355L7.64645 7.64645Z" fill="white"/>
</svg>
