<svg width="20" height="20" viewBox="0 0 20 20" fill="none" xmlns="http://www.w3.org/2000/svg">
<path d="M9.99984 17.5V10.8333M9.99984 17.5L5.00403 13.9316C4.59345 13.6383 4.38817 13.4917 4.27734 13.2763C4.1665 13.0609 4.1665 12.8087 4.1665 12.3041V6.66667M9.99984 17.5L14.9956 13.9316C15.4062 13.6383 15.6115 13.4917 15.7223 13.2763C15.8332 13.0609 15.8332 12.8087 15.8332 12.3041V6.66667M9.99984 10.8333L4.1665 6.66667M9.99984 10.8333L15.8332 6.66667M4.1665 6.66667L8.83736 3.33034C9.3987 2.92938 9.67937 2.7289 9.99984 2.7289C10.3203 2.7289 10.601 2.92938 11.1623 3.33034L15.8332 6.66667" stroke="#2A6AA6" stroke-linejoin="round"/>
</svg>
