<svg width="32" height="32" viewBox="0 0 32 32" fill="none" xmlns="http://www.w3.org/2000/svg">
<path fill-rule="evenodd" clip-rule="evenodd" d="M18.1043 7.48156C17.3724 7.17099 16.569 7 15.7292 7C12.6279 7 10.0225 9.33189 9.68006 12.4142L9.42826 14.6804L9.42201 14.7363C9.30112 15.7897 8.95822 16.8056 8.41594 17.7168L8.38707 17.765L7.80904 18.7284L7.79511 18.7516C7.54468 19.169 7.33723 19.5147 7.2024 19.801C7.06631 20.0899 6.96141 20.4025 7.01368 20.7338C7.0702 21.0919 7.25453 21.4175 7.53257 21.6502C7.78975 21.8655 8.11173 21.9364 8.42953 21.9683C8.7444 22 9.1476 22 9.63432 22H9.66139H21.7969H21.824C22.3107 22 22.7139 22 23.0288 21.9683C23.3466 21.9364 23.6686 21.8655 23.9258 21.6502C24.2038 21.4175 24.3881 21.0919 24.4446 20.7338C24.4969 20.4025 24.392 20.0899 24.2559 19.801C24.1211 19.5147 23.9137 19.169 23.6633 18.7517L23.6632 18.7516L23.6493 18.7284L23.0713 17.765L23.0424 17.7168C22.5001 16.8056 22.1572 15.7897 22.0363 14.7363L22.0301 14.6804L21.9876 14.298C21.6747 14.4016 21.3446 14.4677 21.0028 14.4908L21.0362 14.7909L21.0428 14.8503C21.1798 16.0442 21.5685 17.1955 22.1831 18.2282L22.2138 18.2795L22.7918 19.2429C23.0597 19.6894 23.2405 19.9918 23.3512 20.2271C23.4633 20.4649 23.4612 20.5504 23.4569 20.5779C23.438 20.6973 23.3766 20.8058 23.2839 20.8834C23.2625 20.9013 23.1903 20.947 22.9287 20.9734C22.67 20.9994 22.3176 21 21.7969 21H9.66139C9.14071 21 8.78836 20.9994 8.52963 20.9734C8.26801 20.947 8.19582 20.9013 8.17443 20.8834C8.08175 20.8058 8.0203 20.6973 8.00146 20.5779C7.99712 20.5504 7.99505 20.4649 8.10708 20.2271C8.21788 19.9918 8.39864 19.6894 8.66653 19.2429L9.24457 18.2795L9.27528 18.2282C9.88987 17.1955 10.2785 16.0442 10.4155 14.8503L10.4221 14.7909L10.6739 12.5246C10.9602 9.94875 13.1374 8 15.7292 8C16.3128 8 16.8755 8.09884 17.4003 8.28142C17.5987 7.98435 17.8358 7.71532 18.1043 7.48156ZM19.9184 8.67115C19.6036 8.81089 19.3316 9.02951 19.1275 9.30192C20.0223 10.1054 20.6335 11.2248 20.7815 12.4993C21.1361 12.4902 21.4678 12.3888 21.7533 12.2182C21.5525 10.8203 20.8841 9.58721 19.9184 8.67115Z" fill="#6D7480"/>
<path d="M12.8312 21.9059C13.0022 22.6501 13.3788 23.3077 13.9027 23.7767C14.4267 24.2458 15.0686 24.5 15.729 24.5C16.3894 24.5 17.0314 24.2458 17.5553 23.7767C18.0792 23.3077 18.4559 22.6501 18.6268 21.9059" stroke="#6D7480" stroke-linecap="round"/>
<circle cx="20.729" cy="10.5" r="2" fill="#B22D32"/>
</svg>
