<svg width="32" height="32" viewBox="0 0 32 32" fill="none" xmlns="http://www.w3.org/2000/svg">
<path d="M18.1361 7.36144L18.6337 7.31169L18.1361 7.36144ZM17.9838 6.54161L17.5394 6.7708V6.77081L17.9838 6.54161ZM18.4311 8.81793L18.8286 8.51467V8.51467L18.4311 8.81793ZM19.3595 9.20248L19.2928 8.70694L19.2928 8.70694L19.3595 9.20248ZM20.5979 8.38113L20.9145 8.76811V8.76811L20.5979 8.38113ZM21.2853 7.90918L21.4375 8.38547L21.2853 7.90918ZM21.9872 7.94419L22.186 7.48541V7.48541L21.9872 7.94419ZM22.6243 8.4822L22.2707 8.83575V8.83575L22.6243 8.4822ZM23.5178 9.37567L23.8713 9.02211V9.02211L23.5178 9.37567ZM24.0558 10.0128L24.5146 9.81396L24.5146 9.81396L24.0558 10.0128ZM24.0908 10.7146L24.5671 10.8668L24.5671 10.8668L24.0908 10.7146ZM23.6188 11.4021L23.2318 11.0855V11.0855L23.6188 11.4021ZM22.7975 12.6406L22.3019 12.5739V12.5739L22.7975 12.6406ZM23.182 13.5689L22.8787 13.9665L23.182 13.5689ZM24.6385 13.8639L24.6883 13.3663L24.6385 13.8639ZM25.4584 14.0162L25.6876 13.5719L25.6876 13.5719L25.4584 14.0162ZM25.9299 14.5373L26.3949 14.3534V14.3534L25.9299 14.5373ZM25.93 17.4626L25.465 17.2788L25.465 17.2788L25.93 17.4626ZM25.4583 17.9838L25.6875 18.4282H25.6875L25.4583 17.9838ZM24.6386 18.1361L24.5889 17.6386L24.5726 17.6402L24.5564 17.6429L24.6386 18.1361ZM24.6386 18.1361L24.6884 18.6337L24.7047 18.632L24.7208 18.6293L24.6386 18.1361ZM23.1825 18.4309L22.8794 18.0333L23.1825 18.4309ZM22.7979 19.3596L22.3023 19.4264V19.4264L22.7979 19.3596ZM23.619 20.5976L23.232 20.9142L23.619 20.5976ZM24.0908 21.2848L23.6145 21.437L23.6145 21.437L24.0908 21.2848ZM24.0558 21.9869L23.597 21.7881L23.597 21.7881L24.0558 21.9869ZM23.5179 22.6238L23.8715 22.9773L23.5179 22.6238ZM22.6243 23.5174L22.2708 23.1638V23.1638L22.6243 23.5174ZM21.9873 24.0554L22.1861 24.5141L22.1861 24.5141L21.9873 24.0554ZM21.2854 24.0904L21.1332 24.5667H21.1332L21.2854 24.0904ZM20.5979 23.6184L20.9146 23.2314L20.9103 23.228L20.5979 23.6184ZM20.5979 23.6184L20.2813 24.0054L20.2856 24.0088L20.5979 23.6184ZM19.3595 22.7971L19.4262 22.3015H19.4262L19.3595 22.7971ZM18.4311 23.1816L18.8286 23.4849L18.8286 23.4849L18.4311 23.1816ZM18.1362 24.6383L17.6386 24.5886L18.1362 24.6383ZM17.9837 25.4585L17.5394 25.2292L17.5394 25.2292L17.9837 25.4585ZM17.4628 25.9299L17.2789 25.465H17.2789L17.4628 25.9299ZM14.5373 25.9299L14.7211 25.465H14.7211L14.5373 25.9299ZM14.0162 25.4584L14.4606 25.2292L14.0162 25.4584ZM13.8639 24.6385L13.3663 24.6883L13.8639 24.6385ZM13.5689 23.182L13.1714 23.4853L13.1714 23.4853L13.5689 23.182ZM12.6406 22.7975L12.5739 22.3019H12.5739L12.6406 22.7975ZM11.4021 23.6189L11.0855 23.2319L11.0775 23.2384L11.0699 23.2452L11.4021 23.6189ZM11.4021 23.6189L11.7187 24.0058L11.7266 23.9994L11.7342 23.9926L11.4021 23.6189ZM10.7146 24.0908L10.8667 24.5671H10.8667L10.7146 24.0908ZM10.0127 24.0558L9.81394 24.5146H9.81394L10.0127 24.0558ZM9.37561 23.5178L9.72916 23.1642H9.72916L9.37561 23.5178ZM8.48217 22.6243L8.12861 22.9779H8.12861L8.48217 22.6243ZM7.94414 21.9873L8.40292 21.7885L7.94414 21.9873ZM7.90913 21.2854L8.38542 21.4375L7.90913 21.2854ZM8.3811 20.5979L8.76808 20.9145L8.3811 20.5979ZM9.20247 19.3594L9.69801 19.4261L9.20247 19.3594ZM8.81792 18.4311L9.12119 18.0335H9.12119L8.81792 18.4311ZM7.36143 18.1361L7.31168 18.6337H7.31168L7.36143 18.1361ZM6.54161 17.9838L6.77081 17.5394H6.77081L6.54161 17.9838ZM6.07005 17.4627L5.60507 17.6465H5.60507L6.07005 17.4627ZM6.07008 14.5372L5.60513 14.3533L5.60513 14.3533L6.07008 14.5372ZM6.54152 14.0163L6.31229 13.5719L6.31228 13.5719L6.54152 14.0163ZM7.36155 13.8638V13.3638H7.33661L7.3118 13.3663L7.36155 13.8638ZM7.36156 13.8638V14.3638H7.3865L7.41131 14.3614L7.36156 13.8638ZM8.81842 13.5688L8.5151 13.1713L8.51509 13.1713L8.81842 13.5688ZM9.20287 12.6407L9.69841 12.5741H9.69841L9.20287 12.6407ZM8.38128 11.4018L8.76826 11.0852L8.38128 11.4018ZM7.90914 10.7141L8.38545 10.562H8.38544L7.90914 10.7141ZM7.94413 10.0124L7.48532 9.81371L7.48532 9.81371L7.94413 10.0124ZM8.48233 9.37509L8.83589 9.72864L8.83589 9.72864L8.48233 9.37509ZM9.37565 8.48177L9.0221 8.12822H9.0221L9.37565 8.48177ZM10.0128 7.94373L9.81398 7.48494H9.81398L10.0128 7.94373ZM10.7146 7.90872L10.8668 7.43243L10.7146 7.90872ZM11.4022 8.38076L11.7188 7.99378V7.99378L11.4022 8.38076ZM12.6404 9.20207L12.7072 8.70654L12.6404 9.20207ZM13.5691 8.81742L13.1715 8.51422L13.5691 8.81742ZM13.8639 7.36131L14.3614 7.41106V7.41106L13.8639 7.36131ZM14.0162 6.5417L13.5718 6.31255L13.5718 6.31256L14.0162 6.5417ZM14.5374 6.07001L14.7212 6.535L14.7212 6.535L14.5374 6.07001ZM17.4627 6.07005L17.6465 5.60507L17.6465 5.60507L17.4627 6.07005ZM18.6337 7.31169C18.6126 7.10146 18.5947 6.91945 18.5695 6.7696C18.5435 6.61482 18.5051 6.46166 18.4281 6.31242L17.5394 6.77081C17.5497 6.79088 17.5658 6.8308 17.5833 6.93519C17.6017 7.04449 17.6163 7.18775 17.6386 7.41119L18.6337 7.31169ZM18.8286 8.51467C18.8173 8.49983 18.7806 8.43872 18.7421 8.22451C18.7044 8.01507 18.6755 7.73051 18.6337 7.31169L17.6386 7.41119C17.6788 7.81323 17.7116 8.14432 17.7579 8.40161C17.8033 8.65413 17.8731 8.91083 18.0335 9.12119L18.8286 8.51467ZM19.2928 8.70694C19.1148 8.73089 18.9375 8.65749 18.8286 8.51467L18.0335 9.12118C18.3604 9.54967 18.892 9.76987 19.4261 9.69801L19.2928 8.70694ZM20.2813 7.99415C19.9555 8.26069 19.7339 8.44152 19.5592 8.56296C19.3804 8.68717 19.3113 8.70445 19.2928 8.70694L19.4261 9.69801C19.6883 9.66274 19.9192 9.53055 20.1298 9.38412C20.3445 9.23493 20.6018 9.02396 20.9145 8.76811L20.2813 7.99415ZM21.1332 7.4329C20.9732 7.484 20.8377 7.56512 20.7099 7.65619C20.5861 7.74436 20.4448 7.86037 20.2813 7.99415L20.9145 8.76811C21.0883 8.62591 21.1999 8.53493 21.2902 8.47062C21.3764 8.4092 21.416 8.39234 21.4375 8.38547L21.1332 7.4329ZM22.186 7.48541C21.853 7.3411 21.4789 7.32244 21.1332 7.4329L21.4375 8.38547C21.5527 8.34865 21.6774 8.35487 21.7884 8.40297L22.186 7.48541ZM22.9778 8.12865C22.8285 7.97925 22.6993 7.84975 22.5849 7.74971C22.4668 7.64638 22.3401 7.55217 22.186 7.48541L21.7884 8.40297C21.8092 8.41195 21.8469 8.43267 21.9265 8.50236C22.01 8.57534 22.112 8.67697 22.2707 8.83575L22.9778 8.12865ZM23.8713 9.02211L22.9778 8.12865L22.2707 8.83575L23.1642 9.72922L23.8713 9.02211ZM24.5146 9.81396C24.4478 9.65988 24.3536 9.53314 24.2503 9.41502C24.1502 9.30065 24.0207 9.17151 23.8713 9.02211L23.1642 9.72922C23.323 9.88801 23.4246 9.99001 23.4976 10.0734C23.5673 10.1531 23.588 10.1908 23.597 10.2115L24.5146 9.81396ZM24.5671 10.8668C24.6775 10.5211 24.6589 10.147 24.5146 9.81396L23.597 10.2115C23.6451 10.3226 23.6513 10.4472 23.6145 10.5625L24.5671 10.8668ZM24.0058 11.7187C24.1396 11.5552 24.2556 11.4138 24.3438 11.2901C24.4348 11.1622 24.516 11.0268 24.5671 10.8668L23.6145 10.5625C23.6076 10.584 23.5908 10.6236 23.5293 10.7098C23.465 10.8001 23.374 10.9117 23.2318 11.0855L24.0058 11.7187ZM23.293 12.7072C23.2955 12.6887 23.3128 12.6196 23.437 12.4408C23.5584 12.2661 23.7393 12.0445 24.0058 11.7187L23.2318 11.0855C22.976 11.3982 22.765 11.6555 22.6158 11.8702C22.4694 12.0808 22.3372 12.3117 22.3019 12.5739L23.293 12.7072ZM23.4853 13.1714C23.3424 13.0624 23.2691 12.8852 23.293 12.7072L22.3019 12.5739C22.2301 13.108 22.4503 13.6396 22.8787 13.9665L23.4853 13.1714ZM24.6883 13.3663C24.2694 13.3245 23.9849 13.2956 23.7754 13.2579C23.5612 13.2194 23.5001 13.1827 23.4853 13.1714L22.8787 13.9665C23.0891 14.1269 23.3458 14.1967 23.5983 14.2421C23.8556 14.2884 24.1867 14.3212 24.5888 14.3614L24.6883 13.3663ZM25.6876 13.5719C25.5384 13.4949 25.3852 13.4565 25.2304 13.4305C25.0805 13.4053 24.8985 13.3874 24.6883 13.3663L24.5888 14.3614C24.8122 14.3837 24.9555 14.3983 25.0648 14.4167C25.1692 14.4342 25.2091 14.4503 25.2292 14.4606L25.6876 13.5719ZM26.3949 14.3534C26.2615 14.0159 26.0102 13.7382 25.6876 13.5719L25.2292 14.4606C25.3367 14.5161 25.4205 14.6086 25.465 14.7211L26.3949 14.3534ZM26.5 15.3682C26.5 15.157 26.5003 14.9741 26.4901 14.8224C26.4797 14.6658 26.4567 14.5096 26.3949 14.3534L25.465 14.7211C25.4733 14.7421 25.4853 14.7835 25.4924 14.8891C25.4997 14.9997 25.5 15.1437 25.5 15.3682H26.5ZM26.5 16.6319V15.3682H25.5V16.6319H26.5ZM26.395 17.6464C26.4567 17.4903 26.4797 17.3341 26.4901 17.1775C26.5003 17.026 26.5 16.8431 26.5 16.6319H25.5C25.5 16.8564 25.4997 17.0003 25.4924 17.1109C25.4853 17.2165 25.4733 17.2578 25.465 17.2788L26.395 17.6464ZM25.6875 18.4282C26.0101 18.2618 26.2615 17.984 26.395 17.6464L25.465 17.2788C25.4205 17.3914 25.3367 17.4839 25.2292 17.5394L25.6875 18.4282ZM24.6884 18.6337C24.8986 18.6126 25.0805 18.5947 25.2304 18.5695C25.3851 18.5436 25.5383 18.5051 25.6875 18.4282L25.2292 17.5394C25.2091 17.5498 25.1692 17.5658 25.0648 17.5833C24.9555 17.6017 24.8123 17.6163 24.5889 17.6386L24.6884 18.6337ZM24.7208 18.6293L24.7208 18.6293L24.5564 17.6429L24.5564 17.6429L24.7208 18.6293ZM23.4857 18.8285C23.5006 18.8172 23.5617 18.7805 23.7758 18.742C23.9852 18.7043 24.2697 18.6755 24.6884 18.6337L24.5889 17.6386C24.1869 17.6788 23.856 17.7115 23.5987 17.7578C23.3463 17.8032 23.0897 17.8729 22.8794 18.0333L23.4857 18.8285ZM23.2934 19.2929C23.2694 19.1148 23.3428 18.9375 23.4857 18.8285L22.8794 18.0333C22.4507 18.3602 22.2304 18.8921 22.3023 19.4264L23.2934 19.2929ZM24.006 20.281C23.7395 19.9553 23.5588 19.7338 23.4373 19.5591C23.3132 19.3805 23.2959 19.3113 23.2934 19.2929L22.3023 19.4264C22.3377 19.6885 22.4698 19.9192 22.6162 20.1298C22.7653 20.3444 22.9762 20.6016 23.232 20.9142L24.006 20.281ZM24.5671 21.1326C24.5159 20.9727 24.4348 20.8372 24.3438 20.7095C24.2557 20.5858 24.1397 20.4444 24.006 20.281L23.232 20.9142C23.3741 21.0879 23.4651 21.1995 23.5294 21.2897C23.5908 21.3759 23.6076 21.4155 23.6145 21.437L24.5671 21.1326ZM24.5145 22.1858C24.6589 21.8526 24.6776 21.4784 24.5671 21.1326L23.6145 21.437C23.6514 21.5523 23.6451 21.677 23.597 21.7881L24.5145 22.1858ZM23.8715 22.9773C24.0208 22.828 24.1503 22.6989 24.2503 22.5846C24.3536 22.4665 24.4478 22.3398 24.5145 22.1858L23.597 21.7881C23.588 21.8088 23.5673 21.8465 23.4976 21.9261C23.4247 22.0095 23.3231 22.1115 23.1644 22.2702L23.8715 22.9773ZM22.9779 23.8709L23.8715 22.9773L23.1644 22.2702L22.2708 23.1638L22.9779 23.8709ZM22.1861 24.5141C22.3401 24.4474 22.4669 24.3532 22.585 24.2498C22.6994 24.1498 22.8285 24.0203 22.9779 23.8709L22.2708 23.1638C22.112 23.3226 22.01 23.4242 21.9266 23.4972C21.8469 23.5669 21.8092 23.5876 21.7885 23.5966L22.1861 24.5141ZM21.1332 24.5667C21.4789 24.6771 21.853 24.6585 22.1861 24.5141L21.7885 23.5966C21.6775 23.6447 21.5528 23.6509 21.4375 23.6141L21.1332 24.5667ZM20.2813 24.0054C20.4448 24.1392 20.5862 24.2552 20.7099 24.3434C20.8378 24.4344 20.9732 24.5156 21.1332 24.5667L21.4375 23.6141C21.416 23.6072 21.3764 23.5904 21.2902 23.5289C21.1999 23.4646 21.0883 23.3736 20.9145 23.2314L20.2813 24.0054ZM20.2856 24.0088L20.2856 24.0089L20.9103 23.228L20.9103 23.228L20.2856 24.0088ZM19.2928 23.2926C19.3113 23.2951 19.3805 23.3124 19.5592 23.4366C19.7339 23.558 19.9555 23.7389 20.2813 24.0054L20.9145 23.2314C20.6018 22.9756 20.3446 22.7646 20.1299 22.6154C19.9192 22.469 19.6884 22.3368 19.4262 22.3015L19.2928 23.2926ZM18.8286 23.4849C18.9376 23.3421 19.1148 23.2687 19.2928 23.2926L19.4262 22.3015C18.892 22.2297 18.3604 22.4499 18.0336 22.8784L18.8286 23.4849ZM18.6337 24.6881C18.6756 24.2692 18.7044 23.9846 18.7421 23.7751C18.7807 23.5608 18.8173 23.4997 18.8286 23.4849L18.0336 22.8784C17.8731 23.0887 17.8033 23.3455 17.7579 23.598C17.7116 23.8553 17.6789 24.1865 17.6386 24.5886L18.6337 24.6881ZM18.4281 25.6877C18.5051 25.5385 18.5435 25.3852 18.5695 25.2304C18.5947 25.0805 18.6127 24.8984 18.6337 24.6881L17.6386 24.5886C17.6163 24.8121 17.6017 24.9554 17.5833 25.0648C17.5658 25.1692 17.5497 25.2092 17.5394 25.2292L18.4281 25.6877ZM17.6467 26.3949C17.9841 26.2614 18.2617 26.0102 18.4281 25.6877L17.5394 25.2292C17.4839 25.3367 17.3914 25.4205 17.2789 25.465L17.6467 26.3949ZM16.6316 26.5C16.843 26.5 17.0259 26.5003 17.1776 26.4901C17.3342 26.4797 17.4905 26.4566 17.6467 26.3949L17.2789 25.465C17.2579 25.4733 17.2166 25.4853 17.1109 25.4924C17.0003 25.4997 16.8563 25.5 16.6316 25.5V26.5ZM15.3682 26.5H16.6316V25.5H15.3682V26.5ZM14.3534 26.3949C14.5096 26.4567 14.6658 26.4797 14.8224 26.4901C14.9741 26.5003 15.157 26.5 15.3682 26.5V25.5C15.1437 25.5 14.9997 25.4997 14.8891 25.4924C14.7835 25.4853 14.7421 25.4733 14.7211 25.465L14.3534 26.3949ZM13.5719 25.6876C13.7382 26.0102 14.0159 26.2615 14.3534 26.3949L14.7211 25.465C14.6086 25.4205 14.5161 25.3367 14.4606 25.2292L13.5719 25.6876ZM13.3663 24.6883C13.3874 24.8985 13.4053 25.0805 13.4305 25.2304C13.4565 25.3852 13.4949 25.5384 13.5719 25.6876L14.4606 25.2292C14.4503 25.2091 14.4342 25.1692 14.4167 25.0648C14.3983 24.9555 14.3837 24.8122 14.3614 24.5888L13.3663 24.6883ZM13.1714 23.4853C13.1827 23.5001 13.2194 23.5612 13.2579 23.7754C13.2956 23.9849 13.3245 24.2695 13.3663 24.6883L14.3614 24.5888C14.3212 24.1867 14.2884 23.8556 14.2421 23.5983C14.1967 23.3458 14.1269 23.0891 13.9664 22.8787L13.1714 23.4853ZM12.7072 23.293C12.8852 23.2691 13.0624 23.3425 13.1714 23.4853L13.9664 22.8787C13.6396 22.4503 13.108 22.2301 12.5739 22.3019L12.7072 23.293ZM11.7187 24.0058C12.0445 23.7393 12.2661 23.5584 12.4408 23.437C12.6196 23.3128 12.6887 23.2955 12.7072 23.293L12.5739 22.3019C12.3117 22.3372 12.0809 22.4694 11.8702 22.6158C11.6555 22.765 11.3982 22.976 11.0855 23.2319L11.7187 24.0058ZM11.7342 23.9926L11.7343 23.9926L11.0699 23.2452L11.0699 23.2452L11.7342 23.9926ZM10.8667 24.5671C11.0267 24.516 11.1622 24.4349 11.29 24.3438C11.4138 24.2557 11.5552 24.1396 11.7187 24.0058L11.0854 23.2319C10.9116 23.3741 10.8 23.4651 10.7098 23.5294C10.6235 23.5908 10.584 23.6077 10.5624 23.6145L10.8667 24.5671ZM9.81394 24.5146C10.147 24.6589 10.521 24.6776 10.8667 24.5671L10.5624 23.6145C10.4472 23.6514 10.3225 23.6451 10.2115 23.597L9.81394 24.5146ZM9.02205 23.8713C9.17146 24.0207 9.3006 24.1503 9.41497 24.2503C9.5331 24.3536 9.65985 24.4479 9.81394 24.5146L10.2115 23.597C10.1908 23.5881 10.1531 23.5673 10.0734 23.4977C9.98996 23.4247 9.88796 23.323 9.72916 23.1642L9.02205 23.8713ZM8.12861 22.9779L9.02205 23.8713L9.72916 23.1642L8.83572 22.2708L8.12861 22.9779ZM7.48535 22.186C7.55212 22.3401 7.64632 22.4669 7.74966 22.585C7.84971 22.6994 7.97922 22.8285 8.12861 22.9779L8.83572 22.2708C8.67693 22.112 8.57529 22.01 8.50232 21.9266C8.43262 21.8469 8.4119 21.8092 8.40292 21.7885L7.48535 22.186ZM7.43284 21.1332C7.3224 21.479 7.34106 21.853 7.48535 22.186L8.40292 21.7885C8.35482 21.6775 8.34861 21.5528 8.38542 21.4375L7.43284 21.1332ZM7.99413 20.2813C7.86033 20.4448 7.74432 20.5862 7.65614 20.7099C7.56507 20.8378 7.48395 20.9733 7.43284 21.1332L8.38542 21.4375C8.39229 21.416 8.40915 21.3764 8.47058 21.2902C8.53489 21.1999 8.62588 21.0883 8.76808 20.9145L7.99413 20.2813ZM8.70694 19.2928C8.70445 19.3113 8.68716 19.3804 8.56295 19.5592C8.4415 19.7339 8.26067 19.9555 7.99413 20.2813L8.76808 20.9145C9.02394 20.6018 9.23491 20.3445 9.38411 20.1298C9.53054 19.9192 9.66274 19.6883 9.69801 19.4261L8.70694 19.2928ZM8.51466 18.8286C8.65749 18.9375 8.73088 19.1147 8.70694 19.2928L9.69801 19.4261C9.76986 18.892 9.54966 18.3604 9.12119 18.0335L8.51466 18.8286ZM7.31168 18.6337C7.73051 18.6755 8.01507 18.7044 8.2245 18.7421C8.43871 18.7806 8.49983 18.8173 8.51466 18.8286L9.12119 18.0335C8.91083 17.8731 8.65413 17.8033 8.40161 17.7579C8.14432 17.7116 7.81322 17.6788 7.41118 17.6386L7.31168 18.6337ZM6.31242 18.4281C6.46166 18.5051 6.61482 18.5435 6.7696 18.5695C6.91945 18.5947 7.10145 18.6126 7.31168 18.6337L7.41118 17.6386C7.18774 17.6163 7.04449 17.6017 6.93519 17.5833C6.8308 17.5658 6.79088 17.5497 6.77081 17.5394L6.31242 18.4281ZM5.60507 17.6465C5.73852 17.9841 5.98984 18.2618 6.31242 18.4281L6.77081 17.5394C6.66328 17.4839 6.57951 17.3914 6.53502 17.2789L5.60507 17.6465ZM5.5 16.6318C5.5 16.8431 5.49974 17.0259 5.50987 17.1776C5.52033 17.3341 5.54333 17.4904 5.60507 17.6465L6.53502 17.2789C6.52672 17.2578 6.5147 17.2165 6.50764 17.1109C6.50026 17.0003 6.5 16.8563 6.5 16.6318H5.5ZM5.5 15.3683V16.6318H6.5V15.3683H5.5ZM5.60513 14.3533C5.54335 14.5095 5.52034 14.6658 5.50987 14.8224C5.49974 14.9741 5.5 15.157 5.5 15.3683H6.5C6.5 15.1437 6.50026 14.9997 6.50765 14.8891C6.51471 14.7834 6.52673 14.7421 6.53504 14.7211L5.60513 14.3533ZM6.31228 13.5719C5.98981 13.7383 5.73857 14.0159 5.60513 14.3533L6.53504 14.7211C6.57952 14.6086 6.66327 14.5161 6.77076 14.4606L6.31228 13.5719ZM7.3118 13.3663C7.10152 13.3874 6.91947 13.4053 6.76957 13.4305C6.61476 13.4565 6.46156 13.4949 6.31229 13.5719L6.77076 14.4606C6.79084 14.4503 6.83076 14.4342 6.93518 14.4167C7.04452 14.3983 7.1878 14.3837 7.4113 14.3614L7.3118 13.3663ZM7.36155 13.3638H7.36155V14.3638H7.36155V13.3638ZM7.36156 13.3638H7.36155V14.3638H7.36156V13.3638ZM8.51509 13.1713C8.50025 13.1826 8.43914 13.2193 8.22487 13.2579C8.01538 13.2956 7.73074 13.3244 7.31181 13.3663L7.41131 14.3614C7.81346 14.3211 8.14464 14.2884 8.402 14.2421C8.65458 14.1966 8.91135 14.1268 9.12174 13.9663L8.51509 13.1713ZM8.70732 12.7072C8.73124 12.8852 8.65786 13.0624 8.5151 13.1713L9.12174 13.9663C9.55004 13.6395 9.77016 13.108 9.69841 12.5741L8.70732 12.7072ZM7.9943 11.7184C8.26093 12.0443 8.44182 12.266 8.5633 12.4408C8.68756 12.6196 8.70484 12.6888 8.70732 12.7072L9.69841 12.5741C9.66317 12.3118 9.53094 12.0809 9.38448 11.8701C9.23524 11.6554 9.0242 11.398 8.76826 11.0852L7.9943 11.7184ZM7.43283 10.8661C7.48393 11.0262 7.56508 11.1617 7.65618 11.2896C7.74439 11.4134 7.86045 11.5548 7.9943 11.7184L8.76826 11.0852C8.62599 10.9113 8.53497 10.7997 8.47063 10.7094C8.40918 10.6231 8.39232 10.5835 8.38545 10.562L7.43283 10.8661ZM7.48532 9.81371C7.34112 10.1466 7.32247 10.5205 7.43283 10.8661L8.38544 10.562C8.34866 10.4468 8.35488 10.3221 8.40294 10.2112L7.48532 9.81371ZM8.12878 9.02153C7.97933 9.17099 7.84977 9.30018 7.74969 9.41459C7.64632 9.53276 7.55209 9.65955 7.48532 9.81371L8.40294 10.2112C8.41192 10.1904 8.43264 10.1527 8.50236 10.073C8.57536 9.98953 8.67704 9.88749 8.83589 9.72864L8.12878 9.02153ZM9.0221 8.12822L8.12878 9.02154L8.83589 9.72864L9.72921 8.83532L9.0221 8.12822ZM9.0221 8.12821L9.0221 8.12822L9.72921 8.83532L9.72921 8.83532L9.0221 8.12821ZM9.81398 7.48494C9.65989 7.55171 9.53315 7.64591 9.41502 7.74925C9.30065 7.8493 9.1715 7.97881 9.0221 8.12821L9.72921 8.83532C9.888 8.67653 9.99001 8.57489 10.0734 8.50191C10.1531 8.43221 10.1908 8.41149 10.2116 8.40251L9.81398 7.48494ZM10.8668 7.43243C10.521 7.32199 10.147 7.34065 9.81398 7.48494L10.2116 8.40251C10.3226 8.35442 10.4472 8.3482 10.5625 8.38501L10.8668 7.43243ZM11.7188 7.99378C11.5553 7.85997 11.4139 7.74394 11.2901 7.65575C11.1622 7.56467 11.0268 7.48354 10.8668 7.43243L10.5625 8.38501C10.584 8.39188 10.6236 8.40874 10.7098 8.47018C10.8001 8.53451 10.9117 8.62551 11.0856 8.76774L11.7188 7.99378ZM12.7072 8.70654C12.6887 8.70405 12.6196 8.68676 12.4409 8.56255C12.2661 8.44111 12.0445 8.26029 11.7188 7.99378L11.0856 8.76774C11.3983 9.02357 11.6555 9.23451 11.8701 9.38369C12.0808 9.5301 12.3116 9.66229 12.5737 9.69759L12.7072 8.70654ZM13.1715 8.51422C13.0625 8.6571 12.8853 8.73052 12.7072 8.70654L12.5737 9.69759C13.108 9.76954 13.6397 9.54927 13.9666 9.12062L13.1715 8.51422ZM13.3664 7.31155C13.3245 7.73026 13.2957 8.01474 13.258 8.22412C13.2195 8.43828 13.1828 8.49938 13.1715 8.51422L13.9666 9.12062C14.127 8.9103 14.1968 8.65367 14.2422 8.40121C14.2885 8.14399 14.3212 7.81299 14.3614 7.41106L13.3664 7.31155ZM13.5718 6.31256C13.4949 6.46176 13.4564 6.61489 13.4305 6.76962C13.4053 6.91943 13.3874 7.10139 13.3664 7.31155L14.3614 7.41106C14.3837 7.18768 14.3983 7.04447 14.4167 6.93519C14.4342 6.83083 14.4502 6.79092 14.4606 6.77085L13.5718 6.31256ZM14.3536 5.60501C14.016 5.73847 13.7382 5.98986 13.5718 6.31255L14.4606 6.77085C14.5161 6.66329 14.6086 6.57949 14.7212 6.535L14.3536 5.60501ZM15.3681 5.5C15.1569 5.5 14.974 5.49974 14.8225 5.50986C14.6659 5.52031 14.5097 5.54331 14.3536 5.60501L14.7212 6.535C14.7422 6.5267 14.7835 6.51469 14.8891 6.50764C14.9997 6.50026 15.1436 6.5 15.3681 6.5V5.5ZM16.6318 5.5H15.3681V6.5H16.6318V5.5ZM17.6465 5.60507C17.4904 5.54333 17.3341 5.52033 17.1776 5.50987C17.0259 5.49974 16.8431 5.5 16.6318 5.5V6.5C16.8563 6.5 17.0003 6.50026 17.1109 6.50764C17.2165 6.5147 17.2578 6.52672 17.2789 6.53502L17.6465 5.60507ZM18.4281 6.31242C18.2618 5.98984 17.9841 5.73852 17.6465 5.60507L17.2789 6.53502C17.3914 6.57951 17.4839 6.66328 17.5394 6.7708L18.4281 6.31242ZM19.5 16C19.5 17.933 17.933 19.5 16 19.5V20.5C18.4853 20.5 20.5 18.4853 20.5 16H19.5ZM16 12.5C17.933 12.5 19.5 14.067 19.5 16H20.5C20.5 13.5147 18.4853 11.5 16 11.5V12.5ZM12.5 16C12.5 14.067 14.067 12.5 16 12.5V11.5C13.5147 11.5 11.5 13.5147 11.5 16H12.5ZM16 19.5C14.067 19.5 12.5 17.933 12.5 16H11.5C11.5 18.4853 13.5147 20.5 16 20.5V19.5Z" fill="#6D7480"/>
</svg>
