<svg width="20" height="21" viewBox="0 0 20 21" fill="none" xmlns="http://www.w3.org/2000/svg">
<path d="M6.6665 10.5L6.6665 7.16667C6.6665 5.32572 8.15889 3.83333 9.99984 3.83333V3.83333C11.8408 3.83333 13.3332 5.32572 13.3332 7.16667L13.3332 10.5" stroke="white" stroke-linecap="round"/>
<path d="M3.02768 11.6678C3.17276 9.92692 3.24529 9.05647 3.81938 8.52824C4.39347 8 5.26693 8 7.01386 8H12.9861C14.7331 8 15.6065 8 16.1806 8.52824C16.7547 9.05647 16.8272 9.92692 16.9723 11.6678L17.3195 15.8339C17.404 16.8474 17.4462 17.3542 17.1491 17.6771C16.852 18 16.3435 18 15.3264 18H4.6736C3.65655 18 3.14802 18 2.85092 17.6771C2.55382 17.3542 2.59605 16.8474 2.68051 15.8339L3.02768 11.6678Z" stroke="white"/>
</svg>
